<svg width="160" height="160" viewBox="0 0 160 160" fill="none" xmlns="http://www.w3.org/2000/svg">
<path d="M0 80.1082C0 69.2828 2.02075 59.1069 6.06225 49.5805C10.2481 39.9098 16.0217 31.3938 23.3829 24.0325C30.7442 16.5268 39.1881 10.6811 48.7145 6.49526C58.3852 2.16509 68.7776 0 79.8917 0C90.8615 0 101.11 2.16509 110.636 6.49526C120.307 10.6811 128.823 16.5268 136.184 24.0325C143.69 31.3938 149.535 39.9098 153.721 49.5805C157.907 59.1069 160 69.2828 160 80.1082C160 91.2224 157.907 101.615 153.721 111.286C149.535 120.956 143.69 129.472 136.184 136.834C128.823 144.051 120.307 149.752 110.636 153.938C101.11 157.979 90.8615 160 79.8917 160C68.7776 160 58.3852 157.979 48.7145 153.938C39.1881 149.896 30.7442 144.267 23.3829 137.05C16.0217 129.833 10.2481 121.389 6.06225 111.719C2.02075 102.048 0 91.511 0 80.1082ZM21.6509 80.3248C21.6509 88.5521 23.1664 96.2742 26.1976 103.491C29.2287 110.564 33.4145 116.843 38.7551 122.327C44.0956 127.812 50.3022 132.143 57.3748 135.318C64.4475 138.349 72.0974 139.865 80.3248 139.865C88.4078 139.865 95.9856 138.349 103.058 135.318C110.131 132.143 116.265 127.812 121.461 122.327C126.658 116.843 130.771 110.564 133.802 103.491C136.834 96.2742 138.349 88.4799 138.349 80.1082C138.349 71.8809 136.834 64.1588 133.802 56.9418C130.771 49.5805 126.585 43.1574 121.245 37.6725C115.904 32.1876 109.698 27.9296 102.625 24.8985C95.5526 21.723 87.9747 20.1353 79.8917 20.1353C71.6644 20.1353 64.0144 21.723 56.9418 24.8985C49.8692 28.074 43.6626 32.4041 38.3221 37.889C32.9815 43.3739 28.8678 49.797 25.9811 57.1583C23.0943 64.3753 21.6509 72.0974 21.6509 80.3248Z" fill="#E34231"/>
<path d="M146.819 141.95C148.305 143.584 149.047 145.812 149.047 148.635C149.047 150.566 148.527 152.423 147.487 154.206C146.596 155.84 145.333 157.177 143.699 158.217C141.619 159.406 139.614 160 137.682 160C134.266 160 130.997 158.069 127.877 154.206L80.6351 96.7131L33.1699 154.206C30.0501 158.069 26.7818 160 23.3649 160C21.4336 160 19.428 159.406 17.3482 158.217C15.714 157.177 14.377 155.84 13.337 154.206C12.4457 152.423 12 150.566 12 148.635C12 145.812 12.7428 143.584 14.2284 141.95L65.9276 78.8858L17.1253 19.3872C15.0455 16.8617 14.0056 14.1133 14.0056 11.1421C14.0056 9.21077 14.4513 7.42804 15.3426 5.79388C16.234 4.15971 17.4225 2.89694 18.9081 2.00557C21.1365 0.668524 23.2906 0 25.3705 0C29.0845 0 32.4271 1.93129 35.3983 5.79388L80.6351 60.8357L125.649 5.79388C128.62 1.93129 131.963 0 135.677 0C137.757 0 139.911 0.668524 142.139 2.00557C143.625 3.0455 144.813 4.38255 145.705 6.01672C146.596 7.65089 147.042 9.35934 147.042 11.1421C147.042 14.2618 146.076 17.0102 144.145 19.3872L95.1198 78.8858L146.819 141.95Z" fill="#4DBD88"/>
</svg>
