<svg width="82" height="80" viewBox="0 0 82 80" fill="none" xmlns="http://www.w3.org/2000/svg">
<path d="M2.24446 11.5221C2.24446 10.1926 2.49249 8.94295 2.98856 7.77305C3.50235 6.58541 4.21102 5.53959 5.11457 4.63557C6.01813 3.71382 7.05456 2.99592 8.22386 2.48187C9.41088 1.9501 10.6865 1.68421 12.0507 1.68421C13.3972 1.68421 14.655 1.9501 15.8243 2.48187C17.0114 2.99592 18.0567 3.71382 18.9602 4.63557C19.8815 5.53959 20.599 6.58541 21.1128 7.77305C21.6266 8.94295 21.8835 10.1926 21.8835 11.5221C21.8835 12.887 21.6266 14.1632 21.1128 15.3509C20.599 16.5385 19.8815 17.5843 18.9602 18.4883C18.0567 19.3746 17.0114 20.0748 15.8243 20.5888C14.655 21.0852 13.3972 21.3333 12.0507 21.3333C10.6865 21.3333 9.41088 21.0852 8.22386 20.5888C7.05456 20.0925 6.01813 19.4012 5.11457 18.5149C4.21102 17.6286 3.50235 16.5917 2.98856 15.404C2.49249 14.2164 2.24446 12.9224 2.24446 11.5221ZM4.90197 11.5487C4.90197 12.559 5.088 13.5074 5.46005 14.3937C5.8321 15.2622 6.34589 16.0333 7.00141 16.7069C7.65693 17.3805 8.41875 17.9122 9.28687 18.3022C10.155 18.6745 11.094 18.8606 12.1038 18.8606C13.096 18.8606 14.0261 18.6745 14.8942 18.3022C15.7623 17.9122 16.5153 17.3805 17.1531 16.7069C17.7909 16.0333 18.2958 15.2622 18.6679 14.3937C19.0399 13.5074 19.226 12.5502 19.226 11.5221C19.226 10.5117 19.0399 9.56336 18.6679 8.67706C18.2958 7.77304 17.782 6.98424 17.1265 6.31066C16.471 5.63708 15.7092 5.11416 14.8411 4.74192C13.9729 4.35195 13.0428 4.15697 12.0507 4.15697C11.0408 4.15697 10.1018 4.35195 9.23372 4.74192C8.3656 5.13189 7.60378 5.66367 6.94826 6.33725C6.29274 7.01083 5.78781 7.79963 5.43347 8.70365C5.07914 9.58995 4.90197 10.5383 4.90197 11.5487Z" fill="#2395F4"/>
<path d="M30.5808 40.1536C30.5808 38.8242 30.8288 37.5745 31.3249 36.4046C31.8386 35.217 32.5473 34.1712 33.4509 33.2671C34.3544 32.3454 35.3908 31.6275 36.5602 31.1135C37.7472 30.5817 39.0228 30.3158 40.387 30.3158C41.7334 30.3158 42.9913 30.5817 44.1606 31.1135C45.3477 31.6275 46.393 32.3454 47.2965 33.2671C48.2178 34.1712 48.9353 35.217 49.4491 36.4046C49.9629 37.5745 50.2198 38.8242 50.2198 40.1536C50.2198 41.5185 49.9629 42.7948 49.4491 43.9824C48.9353 45.1701 48.2178 46.2159 47.2965 47.1199C46.393 48.0062 45.3477 48.7064 44.1606 49.2204C42.9913 49.7167 41.7334 49.9649 40.387 49.9649C39.0228 49.9649 37.7472 49.7167 36.5602 49.2204C35.3908 48.7241 34.3544 48.0328 33.4509 47.1465C32.5473 46.2602 31.8386 45.2232 31.3249 44.0356C30.8288 42.848 30.5808 41.554 30.5808 40.1536ZM33.2383 40.1802C33.2383 41.1906 33.4243 42.1389 33.7963 43.0252C34.1684 43.8938 34.6822 44.6649 35.3377 45.3385C35.9932 46.012 36.755 46.5438 37.6232 46.9338C38.4913 47.306 39.4303 47.4922 40.4401 47.4922C41.4323 47.4922 42.3624 47.306 43.2305 46.9338C44.0986 46.5438 44.8516 46.012 45.4894 45.3385C46.1272 44.6649 46.6321 43.8938 47.0042 43.0252C47.3762 42.1389 47.5623 41.1817 47.5623 40.1536C47.5623 39.1433 47.3762 38.1949 47.0042 37.3086C46.6321 36.4046 46.1183 35.6158 45.4628 34.9422C44.8073 34.2687 44.0455 33.7457 43.1774 33.3735C42.3092 32.9835 41.3791 32.7885 40.387 32.7885C39.3771 32.7885 38.4381 32.9835 37.57 33.3735C36.7019 33.7635 35.9401 34.2952 35.2845 34.9688C34.629 35.6424 34.1241 36.4312 33.7698 37.3352C33.4154 38.2215 33.2383 39.1699 33.2383 40.1802Z" fill="#2395F4"/>
<path d="M77.1486 19.1167C77.3309 19.3173 77.4221 19.591 77.4221 19.9376C77.4221 20.1748 77.3583 20.4029 77.2306 20.6218C77.1212 20.8225 76.9662 20.9867 76.7657 21.1144C76.5104 21.2604 76.2642 21.3333 76.0271 21.3333C75.6077 21.3333 75.2066 21.0962 74.8236 20.6218L69.0249 13.5613L63.1989 20.6218C62.8159 21.0962 62.4148 21.3333 61.9954 21.3333C61.7583 21.3333 61.5121 21.2604 61.2568 21.1144C61.0563 20.9867 60.8922 20.8225 60.7645 20.6218C60.6551 20.4029 60.6004 20.1748 60.6004 19.9376C60.6004 19.591 60.6916 19.3173 60.8739 19.1167L67.2197 11.3719L61.2295 4.06509C60.9742 3.75494 60.8466 3.41742 60.8466 3.05253C60.8466 2.81536 60.9013 2.59643 61.0107 2.39574C61.1201 2.19505 61.266 2.03998 61.4483 1.93051C61.7218 1.76631 61.9862 1.68421 62.2415 1.68421C62.6974 1.68421 63.1077 1.92139 63.4724 2.39574L69.0249 9.15526L74.5501 2.39574C74.9148 1.92139 75.3251 1.68421 75.781 1.68421C76.0363 1.68421 76.3007 1.76631 76.5742 1.93051C76.7565 2.05822 76.9024 2.22242 77.0118 2.42311C77.1212 2.62379 77.1759 2.8336 77.1759 3.05253C77.1759 3.43567 77.0574 3.77318 76.8204 4.06509L70.8028 11.3719L77.1486 19.1167Z" fill="#F24239"/>
<path d="M77.1486 76.0991C77.3309 76.2998 77.4221 76.5735 77.4221 76.9201C77.4221 77.1573 77.3583 77.3853 77.2306 77.6043C77.1212 77.8049 76.9662 77.9691 76.7657 78.0969C76.5104 78.2428 76.2642 78.3158 76.0271 78.3158C75.6077 78.3158 75.2066 78.0786 74.8236 77.6043L69.0249 70.5437L63.1989 77.6043C62.8159 78.0786 62.4148 78.3158 61.9954 78.3158C61.7583 78.3158 61.5121 78.2428 61.2568 78.0969C61.0563 77.9691 60.8922 77.8049 60.7645 77.6043C60.6551 77.3853 60.6004 77.1573 60.6004 76.9201C60.6004 76.5735 60.6916 76.2998 60.8739 76.0991L67.2197 68.3544L61.2295 61.0475C60.9742 60.7374 60.8466 60.3999 60.8466 60.035C60.8466 59.7978 60.9013 59.5789 61.0107 59.3782C61.1201 59.1775 61.266 59.0224 61.4483 58.913C61.7218 58.7488 61.9862 58.6667 62.2415 58.6667C62.6974 58.6667 63.1077 58.9038 63.4724 59.3782L69.0249 66.1377L74.5501 59.3782C74.9148 58.9038 75.3251 58.6667 75.781 58.6667C76.0363 58.6667 76.3007 58.7488 76.5742 58.913C76.7565 59.0407 76.9024 59.2049 77.0118 59.4056C77.1212 59.6062 77.1759 59.8161 77.1759 60.035C77.1759 60.4181 77.0574 60.7556 76.8204 61.0475L70.8028 68.3544L77.1486 76.0991Z" fill="#F24239"/>
<path fill-rule="evenodd" clip-rule="evenodd" d="M27.4946 1.12281C27.4946 0.502699 26.9922 0 26.3724 0C25.7526 0 25.2502 0.502698 25.2502 1.12281V24.7018L1.12223 24.7018C0.502441 24.7018 -2.70919e-08 25.2045 0 25.8246C2.70919e-08 26.4447 0.502439 26.9474 1.12223 26.9474L25.2502 26.9474V53.0526H1.12223C0.502442 53.0526 1.21153e-06 53.5553 1.23862e-06 54.1754C1.26571e-06 54.7955 0.50244 55.2982 1.12223 55.2982H25.2502V78.8772C25.2502 79.4973 25.7526 80 26.3724 80C26.9922 80 27.4946 79.4973 27.4946 78.8772V55.2982L53.5865 55.2982V78.8772C53.5865 79.4973 54.0889 80 54.7087 80C55.3285 80 55.8309 79.4973 55.8309 78.8772V55.2982H79.9588C80.5786 55.2982 81.0811 54.7955 81.0811 54.1754C81.0811 53.5553 80.5786 53.0526 79.9588 53.0526H55.8309V26.9474L79.9588 26.9474C80.5786 26.9474 81.0811 26.4447 81.0811 25.8246C81.0811 25.2045 80.5786 24.7018 79.9588 24.7018L55.8309 24.7018V1.12281C55.8309 0.502699 55.3285 0 54.7087 0C54.0889 0 53.5865 0.502698 53.5865 1.12281V24.7018H27.4946V1.12281ZM27.4946 53.0526H25.2502V55.2982H27.4946V53.0526ZM27.4946 53.0526L53.5865 53.0526V26.9474H27.4946V53.0526Z" fill="#617C8B"/>
<path d="M27.4946 53.0526H25.2502V55.2982H27.4946V53.0526Z" fill="#617C8B"/>
</svg>
