<svg width="138" height="160" viewBox="0 0 138 160" fill="none" xmlns="http://www.w3.org/2000/svg">
<path d="M134.819 141.95C136.305 143.584 137.047 145.812 137.047 148.635C137.047 150.566 136.527 152.423 135.487 154.206C134.596 155.84 133.333 157.177 131.699 158.217C129.619 159.406 127.614 160 125.682 160C122.266 160 118.997 158.069 115.877 154.206L68.6351 96.7131L21.1699 154.206C18.0501 158.069 14.7818 160 11.3649 160C9.43361 160 7.42804 159.406 5.34819 158.217C3.71402 157.177 2.37697 155.84 1.33705 154.206C0.445683 152.423 0 150.566 0 148.635C0 145.812 0.742804 143.584 2.22841 141.95L53.9276 78.8858L5.12535 19.3872C3.0455 16.8617 2.00557 14.1133 2.00557 11.1421C2.00557 9.21077 2.45125 7.42804 3.34262 5.79388C4.23398 4.15971 5.42247 2.89694 6.90808 2.00557C9.13649 0.668524 11.2906 0 13.3705 0C17.0845 0 20.4271 1.93129 23.3983 5.79388L68.6351 60.8357L113.649 5.79388C116.62 1.93129 119.963 0 123.677 0C125.757 0 127.911 0.668524 130.139 2.00557C131.625 3.0455 132.813 4.38255 133.705 6.01672C134.596 7.65089 135.042 9.35934 135.042 11.1421C135.042 14.2618 134.076 17.0102 132.145 19.3872L83.1198 78.8858L134.819 141.95Z" fill="#4DBD88"/>
</svg>
